<svg role="img" aria-label="MCP client to Rust server, external native sandbox runner, relay, and worker; dependency preparation remains outside the worker boundary." width="1359pt" height="257pt"
 viewBox="0.00 0.00 1359.00 257.00" xmlns="http://www.w3.org/2000/svg" xmlns:xlink="http://www.w3.org/1999/xlink">
<g id="graph0" class="graph" transform="scale(1 1) rotate(0) translate(18 239)">
<title>G</title>
<g id="clust1" class="cluster">
<title>cluster_sandbox</title>
<path fill="transparent" stroke="#167d76" d="M838,-96C838,-96 1303,-96 1303,-96 1309,-96 1315,-102 1315,-108 1315,-108 1315,-201 1315,-201 1315,-207 1309,-213 1303,-213 1303,-213 838,-213 838,-213 832,-213 826,-207 826,-201 826,-201 826,-108 826,-108 826,-102 832,-96 838,-96"/>
<text text-anchor="middle" x="1070.5" y="-193.8" font-family="Arial" font-size="19.00" fill="#263d46">SANDBOXED PROCESSES</text>
</g>
<!-- client -->
<g id="node1" class="node">
<title>client</title>
<path fill="#ffffff" stroke="#a9b6b6" stroke-width="1.5" d="M122,-87C122,-87 12,-87 12,-87 6,-87 0,-81 0,-75 0,-75 0,-51 0,-51 0,-45 6,-39 12,-39 12,-39 122,-39 122,-39 128,-39 134,-45 134,-51 134,-51 134,-75 134,-75 134,-81 128,-87 122,-87"/>
<text text-anchor="middle" x="67" y="-57.4" font-family="Arial" font-size="22.00" fill="#142d39">MCP client</text>
</g>
<!-- server -->
<g id="node2" class="node">
<title>server</title>
<path fill="#d9eee9" stroke="#167d76" stroke-width="1.5" d="M438,-99C438,-99 260,-99 260,-99 254,-99 248,-93 248,-87 248,-87 248,-39 248,-39 248,-33 254,-27 260,-27 260,-27 438,-27 438,-27 444,-27 450,-33 450,-39 450,-39 450,-87 450,-87 450,-93 444,-99 438,-99"/>
<text text-anchor="middle" x="349" y="-69.4" font-family="Arial" font-size="22.00" fill="#142d39">Rust server</text>
<text text-anchor="middle" x="349" y="-45.4" font-family="Arial" font-size="22.00" fill="#142d39">session + records</text>
</g>
<!-- client&#45;&gt;server -->
<g id="edge2" class="edge">
<title>client&#45;&gt;server</title>
<path fill="none" stroke="#4c7571" stroke-width="1.7" d="M134,-63C165.83,-63 204.82,-63 240.77,-63"/>
<polygon fill="#4c7571" stroke="#4c7571" stroke-width="1.7" points="240.91,-65.45 247.91,-63 240.91,-60.55 240.91,-65.45"/>
<text text-anchor="middle" x="191" y="-68" font-family="Arial" font-size="15.00" fill="#445b64">MCP stdio</text>
</g>
<!-- runner -->
<g id="node3" class="node">
<title>runner</title>
<path fill="#f5e7dc" stroke="#b56844" stroke-width="1.5" d="M777,-176C777,-176 558,-176 558,-176 552,-176 546,-170 546,-164 546,-164 546,-116 546,-116 546,-110 552,-104 558,-104 558,-104 777,-104 777,-104 783,-104 789,-110 789,-116 789,-116 789,-164 789,-164 789,-170 783,-176 777,-176"/>
<text text-anchor="middle" x="667.5" y="-146.4" font-family="Arial" font-size="22.00" fill="#142d39">External native runner</text>
<text text-anchor="middle" x="667.5" y="-122.4" font-family="Arial" font-size="22.00" fill="#142d39">policy + supervision</text>
</g>
<!-- server&#45;&gt;runner -->
<g id="edge3" class="edge">
<title>server&#45;&gt;runner</title>
<path fill="none" stroke="#4c7571" stroke-width="1.7" d="M450.14,-87.36C478.31,-94.22 509.33,-101.76 538.87,-108.95"/>
<polygon fill="#4c7571" stroke="#4c7571" stroke-width="1.7" points="538.56,-111.4 545.94,-110.67 539.72,-106.63 538.56,-111.4"/>
<text text-anchor="middle" x="498" y="-108" font-family="Arial" font-size="15.00" fill="#445b64">launch</text>
</g>
<!-- resolver -->
<g id="node6" class="node">
<title>resolver</title>
<path fill="#ffffff" stroke="#a9b6b6" stroke-width="1.5" d="M768.5,-72C768.5,-72 566.5,-72 566.5,-72 560.5,-72 554.5,-66 554.5,-60 554.5,-60 554.5,-12 554.5,-12 554.5,-6 560.5,0 566.5,0 566.5,0 768.5,0 768.5,0 774.5,0 780.5,-6 780.5,-12 780.5,-12 780.5,-60 780.5,-60 780.5,-66 774.5,-72 768.5,-72"/>
<text text-anchor="middle" x="667.5" y="-42.4" font-family="Arial" font-size="22.00" fill="#142d39">ir / uv resolvers</text>
<text text-anchor="middle" x="667.5" y="-18.4" font-family="Arial" font-size="22.00" fill="#142d39">trusted host process</text>
</g>
<!-- server&#45;&gt;resolver -->
<g id="edge5" class="edge">
<title>server&#45;&gt;resolver</title>
<path fill="none" stroke="#4c7571" stroke-width="1.7" stroke-dasharray="5,2" d="M450.14,-54.46C480.95,-51.83 515.18,-48.91 547.15,-46.18"/>
<polygon fill="#4c7571" stroke="#4c7571" stroke-width="1.7" points="547.59,-48.6 554.36,-45.57 547.17,-43.72 547.59,-48.6"/>
<text text-anchor="middle" x="498" y="-56" font-family="Arial" font-size="15.00" fill="#445b64">prepare</text>
</g>
<!-- relay -->
<g id="node4" class="node">
<title>relay</title>
<path fill="#ffffff" stroke="#a9b6b6" stroke-width="1.5" d="M994,-176C994,-176 846,-176 846,-176 840,-176 834,-170 834,-164 834,-164 834,-116 834,-116 834,-110 840,-104 846,-104 846,-104 994,-104 994,-104 1000,-104 1006,-110 1006,-116 1006,-116 1006,-164 1006,-164 1006,-170 1000,-176 994,-176"/>
<text text-anchor="middle" x="920" y="-146.4" font-family="Arial" font-size="22.00" fill="#142d39">Relay</text>
<text text-anchor="middle" x="920" y="-122.4" font-family="Arial" font-size="22.00" fill="#142d39">code / streams</text>
</g>
<!-- runner&#45;&gt;relay -->
<g id="edge4" class="edge">
<title>runner&#45;&gt;relay</title>
<path fill="none" stroke="#4c7571" stroke-width="1.7" d="M789.35,-140C801.9,-140 814.51,-140 826.67,-140"/>
<polygon fill="#4c7571" stroke="#4c7571" stroke-width="1.7" points="826.78,-142.45 833.78,-140 826.78,-137.55 826.78,-142.45"/>
</g>
<!-- worker -->
<g id="node5" class="node">
<title>worker</title>
<path fill="#ffffff" stroke="#a9b6b6" stroke-width="1.5" d="M1295,-176C1295,-176 1123,-176 1123,-176 1117,-176 1111,-170 1111,-164 1111,-164 1111,-116 1111,-116 1111,-110 1117,-104 1123,-104 1123,-104 1295,-104 1295,-104 1301,-104 1307,-110 1307,-116 1307,-116 1307,-164 1307,-164 1307,-170 1301,-176 1295,-176"/>
<text text-anchor="middle" x="1209" y="-146.4" font-family="Arial" font-size="22.00" fill="#142d39">Worker</text>
<text text-anchor="middle" x="1209" y="-122.4" font-family="Arial" font-size="22.00" fill="#142d39">R · Python · SQL</text>
</g>
<!-- relay&#45;&gt;worker -->
<g id="edge1" class="edge">
<title>relay&#45;&gt;worker</title>
<path fill="none" stroke="#4c7571" stroke-width="1.7" d="M1006.33,-140C1036.9,-140 1071.71,-140 1103.7,-140"/>
<polygon fill="#4c7571" stroke="#4c7571" stroke-width="1.7" points="1103.91,-142.45 1110.91,-140 1103.91,-137.55 1103.91,-142.45"/>
<text text-anchor="middle" x="1058.5" y="-162" font-family="Arial" font-size="15.00" fill="#445b64">sideband</text>
<text text-anchor="middle" x="1058.5" y="-145" font-family="Arial" font-size="15.00" fill="#445b64">+ stdio</text>
</g>
</g>
</svg>
