<?xml version="1.0" encoding="UTF-8" standalone="no"?>
<!DOCTYPE svg PUBLIC "-//W3C//DTD SVG 1.1//EN"
 "http://www.w3.org/Graphics/SVG/1.1/DTD/svg11.dtd">
<!-- Generated by graphviz version 2.42.4 (0)
 -->
<!-- Title: G Pages: 1 -->
<svg width="508pt" height="291pt"
 viewBox="0.00 0.00 507.80 290.80" xmlns="http://www.w3.org/2000/svg" xmlns:xlink="http://www.w3.org/1999/xlink">
<g id="graph0" class="graph" transform="scale(1 1) rotate(0) translate(14.4 276.4)">
<title>G</title>
<!-- code -->
<g id="node1" class="node">
<title>code</title>
<path fill="#ffffff" stroke="#a9b6b6" stroke-width="1.5" d="M211.5,-262C211.5,-262 31.5,-262 31.5,-262 25.5,-262 19.5,-256 19.5,-250 19.5,-250 19.5,-208 19.5,-208 19.5,-202 25.5,-196 31.5,-196 31.5,-196 211.5,-196 211.5,-196 217.5,-196 223.5,-202 223.5,-208 223.5,-208 223.5,-250 223.5,-250 223.5,-256 217.5,-262 211.5,-262"/>
<text text-anchor="middle" x="121.5" y="-234.6" font-family="Arial" font-size="18.00" fill="#142d39">Ordinary code</text>
<text text-anchor="middle" x="121.5" y="-214.6" font-family="Arial" font-size="18.00" fill="#142d39">automatic preparation</text>
</g>
<!-- one -->
<g id="node4" class="node">
<title>one</title>
<path fill="#d9eee9" stroke="#167d76" stroke-width="1.5" d="M467,-164C467,-164 302,-164 302,-164 296,-164 290,-158 290,-152 290,-152 290,-110 290,-110 290,-104 296,-98 302,-98 302,-98 467,-98 467,-98 473,-98 479,-104 479,-110 479,-110 479,-152 479,-152 479,-158 473,-164 467,-164"/>
<text text-anchor="middle" x="384.5" y="-136.6" font-family="Arial" font-size="18.00" fill="#142d39">One tool</text>
<text text-anchor="middle" x="384.5" y="-116.6" font-family="Arial" font-size="18.00" fill="#142d39">no second workflow</text>
</g>
<!-- code&#45;&gt;one -->
<g id="edge1" class="edge">
<title>code&#45;&gt;one</title>
<path fill="none" stroke="#78908f" stroke-width="1.8" d="M210.5,-195.96C235.52,-186.56 262.89,-176.29 288.32,-166.74"/>
<polygon fill="#78908f" stroke="#78908f" stroke-width="1.8" points="289.34,-169.16 295.44,-164.06 287.5,-164.24 289.34,-169.16"/>
</g>
<!-- precise -->
<g id="node2" class="node">
<title>precise</title>
<path fill="#ffffff" stroke="#a9b6b6" stroke-width="1.5" d="M231,-164C231,-164 12,-164 12,-164 6,-164 0,-158 0,-152 0,-152 0,-110 0,-110 0,-104 6,-98 12,-98 12,-98 231,-98 231,-98 237,-98 243,-104 243,-110 243,-110 243,-152 243,-152 243,-158 237,-164 231,-164"/>
<text text-anchor="middle" x="121.5" y="-136.6" font-family="Arial" font-size="18.00" fill="#142d39">Explicit requirements</text>
<text text-anchor="middle" x="121.5" y="-116.6" font-family="Arial" font-size="18.00" fill="#142d39">versions · extras · sources</text>
</g>
<!-- precise&#45;&gt;one -->
<g id="edge2" class="edge">
<title>precise&#45;&gt;one</title>
<path fill="none" stroke="#78908f" stroke-width="1.8" d="M243.07,-131C256.01,-131 269.08,-131 281.77,-131"/>
<polygon fill="#78908f" stroke="#78908f" stroke-width="1.8" points="282.12,-133.63 289.62,-131 282.12,-128.38 282.12,-133.63"/>
</g>
<!-- control -->
<g id="node3" class="node">
<title>control</title>
<path fill="#ffffff" stroke="#a9b6b6" stroke-width="1.5" d="M219.5,-66C219.5,-66 23.5,-66 23.5,-66 17.5,-66 11.5,-60 11.5,-54 11.5,-54 11.5,-12 11.5,-12 11.5,-6 17.5,0 23.5,0 23.5,0 219.5,0 219.5,0 225.5,0 231.5,-6 231.5,-12 231.5,-12 231.5,-54 231.5,-54 231.5,-60 225.5,-66 219.5,-66"/>
<text text-anchor="middle" x="121.5" y="-38.6" font-family="Arial" font-size="18.00" fill="#142d39">Runtime control</text>
<text text-anchor="middle" x="121.5" y="-18.6" font-family="Arial" font-size="18.00" fill="#142d39">input · interrupt · restart</text>
</g>
<!-- control&#45;&gt;one -->
<g id="edge3" class="edge">
<title>control&#45;&gt;one</title>
<path fill="none" stroke="#78908f" stroke-width="1.8" d="M210.5,-66.04C235.52,-75.44 262.89,-85.71 288.32,-95.26"/>
<polygon fill="#78908f" stroke="#78908f" stroke-width="1.8" points="287.5,-97.76 295.44,-97.94 289.34,-92.84 287.5,-97.76"/>
</g>
</g>
</svg>
