<?xml version="1.0" encoding="UTF-8" standalone="no"?>
<!DOCTYPE svg PUBLIC "-//W3C//DTD SVG 1.1//EN"
 "http://www.w3.org/Graphics/SVG/1.1/DTD/svg11.dtd">
<!-- Generated by graphviz version 2.42.4 (0)
 -->
<!-- Title: G Pages: 1 -->
<svg width="831pt" height="269pt"
 viewBox="0.00 0.00 830.80 268.80" xmlns="http://www.w3.org/2000/svg" xmlns:xlink="http://www.w3.org/1999/xlink">
<g id="graph0" class="graph" transform="scale(1 1) rotate(0) translate(14.4 254.4)">
<title>G</title>
<g id="clust1" class="cluster">
<title>cluster_container</title>
<path fill="transparent" stroke="#167d76" d="M211,-8C211,-8 782,-8 782,-8 788,-8 794,-14 794,-20 794,-20 794,-138 794,-138 794,-144 788,-150 782,-150 782,-150 211,-150 211,-150 205,-150 199,-144 199,-138 199,-138 199,-20 199,-20 199,-14 205,-8 211,-8"/>
<text text-anchor="middle" x="496.5" y="-131.6" font-family="Arial" font-size="18.00" fill="#263d46">OWNED CONTAINER</text>
</g>
<!-- server -->
<g id="node1" class="node">
<title>server</title>
<path fill="#ffffff" stroke="#a9b6b6" stroke-width="1.5" d="M164,-240C164,-240 12,-240 12,-240 6,-240 0,-234 0,-228 0,-228 0,-186 0,-186 0,-180 6,-174 12,-174 12,-174 164,-174 164,-174 170,-174 176,-180 176,-186 176,-186 176,-228 176,-228 176,-234 170,-240 164,-240"/>
<text text-anchor="middle" x="88" y="-212.6" font-family="Arial" font-size="18.00" fill="#142d39">Controller</text>
<text text-anchor="middle" x="88" y="-192.6" font-family="Arial" font-size="18.00" fill="#142d39">MCP + recordings</text>
</g>
<!-- owner -->
<g id="node2" class="node">
<title>owner</title>
<path fill="#ffffff" stroke="#a9b6b6" stroke-width="1.5" d="M431.5,-240C431.5,-240 251.5,-240 251.5,-240 245.5,-240 239.5,-234 239.5,-228 239.5,-228 239.5,-186 239.5,-186 239.5,-180 245.5,-174 251.5,-174 251.5,-174 431.5,-174 431.5,-174 437.5,-174 443.5,-180 443.5,-186 443.5,-186 443.5,-228 443.5,-228 443.5,-234 437.5,-240 431.5,-240"/>
<text text-anchor="middle" x="341.5" y="-212.6" font-family="Arial" font-size="18.00" fill="#142d39">Docker owner</text>
<text text-anchor="middle" x="341.5" y="-192.6" font-family="Arial" font-size="18.00" fill="#142d39">create · attach · retire</text>
</g>
<!-- server&#45;&gt;owner -->
<g id="edge2" class="edge">
<title>server&#45;&gt;owner</title>
<path fill="none" stroke="#78908f" stroke-width="1.8" d="M176.26,-207C194.01,-207 212.89,-207 231.3,-207"/>
<polygon fill="#78908f" stroke="#78908f" stroke-width="1.8" points="231.65,-209.63 239.15,-207 231.65,-204.38 231.65,-209.63"/>
</g>
<!-- worker -->
<g id="node4" class="node">
<title>worker</title>
<path fill="#ffffff" stroke="#a9b6b6" stroke-width="1.5" d="M758,-98C758,-98 519,-98 519,-98 513,-98 507,-92 507,-86 507,-86 507,-44 507,-44 507,-38 513,-32 519,-32 519,-32 758,-32 758,-32 764,-32 770,-38 770,-44 770,-44 770,-86 770,-86 770,-92 764,-98 758,-98"/>
<text text-anchor="middle" x="638.5" y="-70.6" font-family="Arial" font-size="18.00" fill="#142d39">Launcher → relay → worker</text>
<text text-anchor="middle" x="638.5" y="-50.6" font-family="Arial" font-size="18.00" fill="#142d39">optional inner native sandbox</text>
</g>
<!-- owner&#45;&gt;worker -->
<g id="edge3" class="edge">
<title>owner&#45;&gt;worker</title>
<path fill="none" stroke="#78908f" stroke-width="1.8" d="M424.44,-173.91C436.44,-168.75 448.6,-163.35 460,-158 497.05,-140.61 537.52,-119.57 570.46,-101.9"/>
<polygon fill="#78908f" stroke="#78908f" stroke-width="1.8" points="572.01,-104.05 577.37,-98.18 569.52,-99.42 572.01,-104.05"/>
</g>
<!-- image -->
<g id="node3" class="node">
<title>image</title>
<path fill="#d9eee9" stroke="#167d76" stroke-width="1.5" d="M448,-98C448,-98 235,-98 235,-98 229,-98 223,-92 223,-86 223,-86 223,-44 223,-44 223,-38 229,-32 235,-32 235,-32 448,-32 448,-32 454,-32 460,-38 460,-44 460,-44 460,-86 460,-86 460,-92 454,-98 448,-98"/>
<text text-anchor="middle" x="341.5" y="-70.6" font-family="Arial" font-size="18.00" fill="#142d39">Captured image</text>
<text text-anchor="middle" x="341.5" y="-50.6" font-family="Arial" font-size="18.00" fill="#142d39">preinstalled dependencies</text>
</g>
<!-- image&#45;&gt;worker -->
<g id="edge1" class="edge">
<title>image&#45;&gt;worker</title>
<path fill="none" stroke="#78908f" stroke-width="1.8" d="M460.36,-65C473.11,-65 486.16,-65 499.12,-65"/>
<polygon fill="#78908f" stroke="#78908f" stroke-width="1.8" points="499.24,-67.63 506.74,-65 499.24,-62.38 499.24,-67.63"/>
</g>
</g>
</svg>
