<?xml version="1.0" encoding="UTF-8" standalone="no"?>
<!DOCTYPE svg PUBLIC "-//W3C//DTD SVG 1.1//EN"
 "http://www.w3.org/Graphics/SVG/1.1/DTD/svg11.dtd">
<!-- Generated by graphviz version 2.42.4 (0)
 -->
<!-- Title: G Pages: 1 -->
<svg width="798pt" height="269pt"
 viewBox="0.00 0.00 797.80 268.80" xmlns="http://www.w3.org/2000/svg" xmlns:xlink="http://www.w3.org/1999/xlink">
<g id="graph0" class="graph" transform="scale(1 1) rotate(0) translate(14.4 254.4)">
<title>G</title>
<g id="clust1" class="cluster">
<title>cluster_vm</title>
<path fill="transparent" stroke="#167d76" d="M227.5,-8C227.5,-8 749,-8 749,-8 755,-8 761,-14 761,-20 761,-20 761,-138 761,-138 761,-144 755,-150 749,-150 749,-150 227.5,-150 227.5,-150 221.5,-150 215.5,-144 215.5,-138 215.5,-138 215.5,-20 215.5,-20 215.5,-14 221.5,-8 227.5,-8"/>
<text text-anchor="middle" x="488.25" y="-131.6" font-family="Arial" font-size="18.00" fill="#263d46">OWNED MICROVM</text>
</g>
<!-- server -->
<g id="node1" class="node">
<title>server</title>
<path fill="#ffffff" stroke="#a9b6b6" stroke-width="1.5" d="M164,-240C164,-240 12,-240 12,-240 6,-240 0,-234 0,-228 0,-228 0,-186 0,-186 0,-180 6,-174 12,-174 12,-174 164,-174 164,-174 170,-174 176,-180 176,-186 176,-186 176,-228 176,-228 176,-234 170,-240 164,-240"/>
<text text-anchor="middle" x="88" y="-212.6" font-family="Arial" font-size="18.00" fill="#142d39">Controller</text>
<text text-anchor="middle" x="88" y="-192.6" font-family="Arial" font-size="18.00" fill="#142d39">MCP + recordings</text>
</g>
<!-- owner -->
<g id="node2" class="node">
<title>owner</title>
<path fill="#ffffff" stroke="#a9b6b6" stroke-width="1.5" d="M423,-240C423,-240 235,-240 235,-240 229,-240 223,-234 223,-228 223,-228 223,-186 223,-186 223,-180 229,-174 235,-174 235,-174 423,-174 423,-174 429,-174 435,-180 435,-186 435,-186 435,-228 435,-228 435,-234 429,-240 423,-240"/>
<text text-anchor="middle" x="329" y="-212.6" font-family="Arial" font-size="18.00" fill="#142d39">sbx</text>
<text text-anchor="middle" x="329" y="-192.6" font-family="Arial" font-size="18.00" fill="#142d39">create · exec · remove</text>
</g>
<!-- server&#45;&gt;owner -->
<g id="edge2" class="edge">
<title>server&#45;&gt;owner</title>
<path fill="none" stroke="#78908f" stroke-width="1.8" d="M176.3,-207C188.9,-207 202.01,-207 215.02,-207"/>
<polygon fill="#78908f" stroke="#78908f" stroke-width="1.8" points="215.16,-209.63 222.66,-207 215.16,-204.38 215.16,-209.63"/>
</g>
<!-- worker -->
<g id="node4" class="node">
<title>worker</title>
<path fill="#ffffff" stroke="#a9b6b6" stroke-width="1.5" d="M725,-98C725,-98 494,-98 494,-98 488,-98 482,-92 482,-86 482,-86 482,-44 482,-44 482,-38 488,-32 494,-32 494,-32 725,-32 725,-32 731,-32 737,-38 737,-44 737,-44 737,-86 737,-86 737,-92 731,-98 725,-98"/>
<text text-anchor="middle" x="609.5" y="-70.6" font-family="Arial" font-size="18.00" fill="#142d39">Launcher → relay → worker</text>
<text text-anchor="middle" x="609.5" y="-50.6" font-family="Arial" font-size="18.00" fill="#142d39">no inner native runner</text>
</g>
<!-- owner&#45;&gt;worker -->
<g id="edge3" class="edge">
<title>owner&#45;&gt;worker</title>
<path fill="none" stroke="#78908f" stroke-width="1.8" d="M402.27,-173.92C413.28,-168.69 424.48,-163.27 435,-158 470.66,-140.14 509.86,-119.24 541.97,-101.78"/>
<polygon fill="#78908f" stroke="#78908f" stroke-width="1.8" points="543.38,-104 548.71,-98.11 540.86,-99.39 543.38,-104"/>
</g>
<!-- template -->
<g id="node3" class="node">
<title>template</title>
<path fill="#d9eee9" stroke="#167d76" stroke-width="1.5" d="M406.5,-98C406.5,-98 251.5,-98 251.5,-98 245.5,-98 239.5,-92 239.5,-86 239.5,-86 239.5,-44 239.5,-44 239.5,-38 245.5,-32 251.5,-32 251.5,-32 406.5,-32 406.5,-32 412.5,-32 418.5,-38 418.5,-44 418.5,-44 418.5,-86 418.5,-86 418.5,-92 412.5,-98 406.5,-98"/>
<text text-anchor="middle" x="329" y="-70.6" font-family="Arial" font-size="18.00" fill="#142d39">Prepared template</text>
<text text-anchor="middle" x="329" y="-50.6" font-family="Arial" font-size="18.00" fill="#142d39">provider policy</text>
</g>
<!-- template&#45;&gt;worker -->
<g id="edge1" class="edge">
<title>template&#45;&gt;worker</title>
<path fill="none" stroke="#78908f" stroke-width="1.8" d="M418.5,-65C436.29,-65 455.36,-65 474.3,-65"/>
<polygon fill="#78908f" stroke="#78908f" stroke-width="1.8" points="474.33,-67.63 481.83,-65 474.33,-62.38 474.33,-67.63"/>
</g>
</g>
</svg>
