<?xml version="1.0" encoding="UTF-8" standalone="no"?>
<!DOCTYPE svg PUBLIC "-//W3C//DTD SVG 1.1//EN"
 "http://www.w3.org/Graphics/SVG/1.1/DTD/svg11.dtd">
<!-- Generated by graphviz version 16.1.0 (20260904.0139)
 -->
<!-- Title: G Pages: 1 -->
<svg width="705pt" height="97pt"
 viewBox="0.00 0.00 705.00 97.00" xmlns="http://www.w3.org/2000/svg" xmlns:xlink="http://www.w3.org/1999/xlink">
<g id="graph0" class="graph" transform="scale(1 1) rotate(0) translate(14.4 82.32)">
<title>G</title>
<!-- model -->
<g id="node1" class="node">
<title>model</title>
<path fill="#ffffff" stroke="#a9b6b6" stroke-width="1.5" d="M100.68,-57.42C100.68,-57.42 12,-57.42 12,-57.42 6,-57.42 0,-51.42 0,-45.42 0,-45.42 0,-22.5 0,-22.5 0,-16.5 6,-10.5 12,-10.5 12,-10.5 100.68,-10.5 100.68,-10.5 106.68,-10.5 112.68,-16.5 112.68,-22.5 112.68,-22.5 112.68,-45.42 112.68,-45.42 112.68,-51.42 106.68,-57.42 100.68,-57.42"/>
<text xml:space="preserve" text-anchor="middle" x="56.34" y="-27.36" font-family="Arial" font-size="18.00" fill="#142d39">LLM client</text>
</g>
<!-- send -->
<g id="node2" class="node">
<title>send</title>
<path fill="#d9eee9" stroke="#167d76" stroke-width="1.5" d="M295.61,-57.42C295.61,-57.42 171.68,-57.42 171.68,-57.42 165.68,-57.42 159.68,-51.42 159.68,-45.42 159.68,-45.42 159.68,-22.5 159.68,-22.5 159.68,-16.5 165.68,-10.5 171.68,-10.5 171.68,-10.5 295.61,-10.5 295.61,-10.5 301.61,-10.5 307.61,-16.5 307.61,-22.5 307.61,-22.5 307.61,-45.42 307.61,-45.42 307.61,-51.42 301.61,-57.42 295.61,-57.42"/>
<text xml:space="preserve" text-anchor="middle" x="233.65" y="-27.36" font-family="Arial" font-size="18.00" fill="#142d39">console.send()</text>
</g>
<!-- model&#45;&gt;send -->
<g id="edge1" class="edge">
<title>model&#45;&gt;send</title>
<path fill="none" stroke="#78908f" stroke-width="1.8" d="M113.29,-33.96C124.64,-33.96 136.81,-33.96 148.88,-33.96"/>
<polygon fill="#78908f" stroke="#78908f" stroke-width="1.8" points="148.76,-36.59 156.26,-33.96 148.76,-31.34 148.76,-36.59"/>
</g>
<!-- runtime -->
<g id="node3" class="node">
<title>runtime</title>
<path fill="#ffffff" stroke="#a9b6b6" stroke-width="1.5" d="M663.79,-67.92C663.79,-67.92 366.61,-67.92 366.61,-67.92 360.61,-67.92 354.61,-61.92 354.61,-55.92 354.61,-55.92 354.61,-12 354.61,-12 354.61,-6 360.61,0 366.61,0 366.61,0 663.79,0 663.79,0 669.79,0 675.79,-6 675.79,-12 675.79,-12 675.79,-55.92 675.79,-55.92 675.79,-61.92 669.79,-67.92 663.79,-67.92"/>
<text xml:space="preserve" text-anchor="middle" x="515.2" y="-37.86" font-family="Arial" font-size="18.00" fill="#142d39">Runtime capabilities</text>
<text xml:space="preserve" text-anchor="middle" x="515.2" y="-16.86" font-family="Arial" font-size="18.00" fill="#142d39">objects · packages · DB connections</text>
</g>
<!-- send&#45;&gt;runtime -->
<g id="edge2" class="edge">
<title>send&#45;&gt;runtime</title>
<path fill="none" stroke="#78908f" stroke-width="1.8" d="M308.09,-33.96C319.46,-33.96 331.58,-33.96 344.04,-33.96"/>
<polygon fill="#78908f" stroke="#78908f" stroke-width="1.8" points="343.87,-36.59 351.37,-33.96 343.87,-31.34 343.87,-36.59"/>
</g>
</g>
</svg>
